# xmcd CD database file
#
# Track frame offsets:
#	150
#	16450
#	28777
#	55562
#
# Disc length: 1018 seconds
#
# Revision: 0
# Processed by: cddbd v1.5.1PL2 Copyright (c) Steve Scherf et al.
# Submitted via: CDex 1.50
#
DISCID=2703f804
DTITLE=hare-brained unity - ソライロ
DYEAR=2006
DGENRE=Japanese Pop
TTITLE0=ソライロ
TTITLE1=KILLER LOOP (inst.)
TTITLE2=ソライロ BLACKSEA MIX
TTITLE3=四月ノ空 (live)
EXTD=YEAR: 2006
EXTT0=
EXTT1=
EXTT2=
EXTT3=
PLAYORDER=
